<svg width="50" height="50" viewBox="0 0 50 50" fill="none" xmlns="http://www.w3.org/2000/svg">
<path d="M23.4375 31.25H10.9375V25.7812C10.9375 25.9885 11.0198 26.1872 11.1663 26.3337C11.3128 26.4802 11.5115 26.5625 11.7188 26.5625H22.6562C22.8635 26.5625 23.0622 26.4802 23.2087 26.3337C23.3552 26.1872 23.4375 25.9885 23.4375 25.7812V24.6094C23.4375 23.1313 22.2953 22.2656 20.8016 21.8984L20.6094 21.8469C19.9094 21.6328 15.4734 20.3078 13.6719 20.3125C12.9467 20.3125 12.2512 20.6006 11.7384 21.1134C11.2256 21.6262 10.9375 22.3217 10.9375 23.0469V18.75C10.9375 18.1344 10.8163 17.5249 10.5807 16.9562C10.3451 16.3875 9.99984 15.8707 9.56456 15.4354C9.12929 15.0002 8.61254 14.6549 8.04383 14.4193C7.47511 14.1837 6.86557 14.0625 6.25 14.0625C5.63443 14.0625 5.02489 14.1837 4.45617 14.4193C3.88746 14.6549 3.37071 15.0002 2.93544 15.4354C2.50016 15.8707 2.15488 16.3875 1.91931 16.9562C1.68375 17.5249 1.5625 18.1344 1.5625 18.75V42.1875C1.5625 43.0163 1.89174 43.8112 2.47779 44.3972C3.06384 44.9833 3.8587 45.3125 4.6875 45.3125H6.25V47.6562C6.25 47.8634 6.33231 48.0622 6.47882 48.2087C6.62534 48.3552 6.82405 48.4375 7.03125 48.4375H10.1562C10.3635 48.4375 10.5622 48.3552 10.7087 48.2087C10.8552 48.0622 10.9375 47.8634 10.9375 47.6562V45.3125H39.0625V47.6562C39.0625 47.8634 39.1448 48.0622 39.2913 48.2087C39.4378 48.3552 39.6366 48.4375 39.8438 48.4375H42.9688C43.1759 48.4375 43.3747 48.3552 43.5212 48.2087C43.6677 48.0622 43.75 47.8634 43.75 47.6562V45.3125H45.3125C46.1413 45.3125 46.9362 44.9833 47.5222 44.3972C48.1083 43.8112 48.4375 43.0163 48.4375 42.1875V30.4625C48.4375 29.0121 47.8613 27.6211 46.8357 26.5955C45.8102 25.5699 44.4192 24.9938 42.9688 24.9938H25.7812C25.1596 24.9938 24.5635 25.2407 24.124 25.6802C23.6844 26.1198 23.4375 26.7159 23.4375 27.3375V31.25ZM6.25 17.1875C6.6644 17.1875 7.06183 17.3521 7.35485 17.6451C7.64788 17.9382 7.8125 18.3356 7.8125 18.75V34.375H23.4375V35.1562C23.4375 35.3635 23.5198 35.5622 23.6663 35.7087C23.8128 35.8552 24.0115 35.9375 24.2188 35.9375H45.3125V42.1875H4.6875V18.75C4.6875 18.3356 4.85212 17.9382 5.14515 17.6451C5.43817 17.3521 5.8356 17.1875 6.25 17.1875Z" fill="#343434"/>
</svg>
