<svg width="50" height="50" viewBox="0 0 50 50" fill="none" xmlns="http://www.w3.org/2000/svg">
<path d="M40.4658 9.54489C38.4381 7.49719 36.0259 5.87031 33.3676 4.7577C30.7093 3.64509 27.8574 3.06868 24.9757 3.06159C22.094 3.0545 19.2393 3.61686 16.5755 4.71637C13.9118 5.81588 11.4916 7.43087 9.45391 9.46856C7.41622 11.5062 5.80123 13.9265 4.70172 16.5902C3.60221 19.2539 3.03985 22.1086 3.04694 24.9904C3.05403 27.8721 3.63044 30.724 4.74305 33.3823C5.85566 36.0405 7.48255 38.4528 9.53024 40.4804C11.5579 42.5281 13.9701 44.155 16.6284 45.2676C19.2867 46.3802 22.1386 46.9566 25.0203 46.9637C27.902 46.9708 30.7567 46.4085 33.4205 45.3089C36.0842 44.2094 38.5044 42.5944 40.5421 40.5568C42.5798 38.5191 44.1948 36.0988 45.2943 33.4351C46.3938 30.7714 46.9562 27.9167 46.9491 25.035C46.942 22.1532 46.3656 19.3013 45.253 16.643C44.1404 13.9848 42.5135 11.5725 40.4658 9.54489ZM6.24801 25.0127C6.24728 23.3532 6.46731 21.701 6.90231 20.0996C7.61911 21.6425 8.66012 22.9755 9.36813 24.5586C10.2832 26.5937 12.7402 26.0293 13.8252 27.8125C14.788 29.3955 13.7597 31.3974 14.4804 33.0537C15.0039 34.2558 16.2382 34.5185 17.0898 35.3974C17.9599 36.2841 17.9414 37.499 18.0742 38.6552C18.2239 40.0138 18.467 41.3604 18.8017 42.6855C18.8017 42.6953 18.8017 42.706 18.8095 42.7158C11.5019 40.1494 6.24801 33.1835 6.24801 25.0127ZM24.998 43.7626C23.9509 43.7624 22.9056 43.6748 21.873 43.5009C21.8838 43.2363 21.8886 42.9892 21.915 42.8173C22.1523 41.2646 22.9296 39.7461 23.9785 38.5839C25.0146 37.4375 26.4345 36.6621 27.3095 35.3613C28.167 34.0918 28.4238 32.3828 28.0703 30.8994C27.5498 28.708 24.5722 27.9765 22.9668 26.788C22.0439 26.1045 21.2226 25.0478 20.0107 24.9619C19.4521 24.9228 18.9843 25.0429 18.4306 24.9004C17.9228 24.7685 17.5244 24.4951 16.9834 24.5664C15.9726 24.6992 15.3349 25.7793 14.249 25.6328C13.2187 25.4951 12.1572 24.289 11.9228 23.3076C11.622 22.0459 12.6201 21.6367 13.6894 21.5244C14.1357 21.4775 14.6367 21.4267 15.0654 21.5908C15.6298 21.7998 15.8964 22.3525 16.4033 22.6318C17.3535 23.1533 17.5459 22.3203 17.4004 21.4765C17.1826 20.2129 16.9287 19.6982 18.0556 18.8281C18.8369 18.2285 19.5048 17.7949 19.3798 16.7177C19.3056 16.0849 18.9589 15.7988 19.2822 15.1689C19.5273 14.6894 20.2002 14.2568 20.6386 13.9707C21.7705 13.2324 25.4873 13.2871 23.9687 11.2207C23.5224 10.6142 22.6992 9.53024 21.9179 9.3818C20.9414 9.19723 20.5078 10.2871 19.8271 10.7675C19.124 11.2646 17.7548 11.8291 17.0507 11.0605C16.1035 10.0263 17.6787 9.68747 18.0273 8.96481C18.1884 8.6279 18.0273 8.16012 17.7558 7.71969C18.108 7.57126 18.4661 7.43356 18.83 7.30661C19.0581 7.47506 19.3287 7.57653 19.6113 7.59958C20.2646 7.64254 20.8808 7.28903 21.4511 7.73434C22.0839 8.22262 22.54 8.83981 23.3798 8.99215C24.1923 9.13961 25.0527 8.66598 25.2539 7.83395C25.3759 7.32809 25.2539 6.79391 25.1367 6.27145C28.789 6.29247 32.3547 7.38628 35.3906 9.41696C35.1953 9.34274 34.9619 9.35153 34.6738 9.48532C34.081 9.76071 33.2412 10.4619 33.1718 11.1572C33.0927 11.9463 34.2568 12.0576 34.8095 12.0576C35.6396 12.0576 36.4804 11.6865 36.2128 10.7275C36.0966 10.3115 35.9384 9.87887 35.6836 9.61715C36.2963 10.0423 36.8833 10.5034 37.4414 10.998C37.4326 11.0068 37.4238 11.0146 37.415 11.0244C36.8525 11.6103 36.1992 12.0742 35.8144 12.7871C35.5429 13.289 35.2373 13.5273 34.6875 13.6572C34.3847 13.7285 34.039 13.7548 33.7851 13.958C33.0781 14.5146 33.4804 15.8525 34.1503 16.2539C34.997 16.7607 36.2529 16.5224 36.8916 15.7988C37.3906 15.2324 37.6845 14.249 38.582 14.25C38.9771 14.2491 39.3567 14.4038 39.6386 14.6806C40.0097 15.0654 39.9365 15.4248 40.0156 15.9052C40.1552 16.7588 40.9082 16.2959 41.3662 15.8652C41.7 16.4593 42.0013 17.0713 42.2685 17.6982C41.7646 18.4238 41.3642 19.2148 40.1523 18.3691C39.4267 17.8623 38.9804 17.1269 38.0693 16.8984C37.2734 16.7031 36.458 16.9062 35.6718 17.042C34.7783 17.1972 33.7187 17.2656 33.041 17.9423C32.3857 18.5947 32.039 19.4677 31.3418 20.123C29.9931 21.3925 29.4238 22.7783 30.2968 24.5732C31.1367 26.2988 32.8935 27.2353 34.789 27.1123C36.6513 26.9882 38.5859 25.9082 38.5322 28.6142C38.5127 29.5722 38.7128 30.2353 39.0068 31.125C39.2793 31.9453 39.2607 32.7402 39.3232 33.5869C39.3826 34.5783 39.5376 35.5617 39.7861 36.5234C38.0357 38.7771 35.7934 40.6009 33.2304 41.8556C30.6674 43.1102 27.8516 43.7625 24.998 43.7626Z" fill="#343434"/>
</svg>
