<svg width="32" height="32" viewBox="0 0 32 32" fill="none" xmlns="http://www.w3.org/2000/svg">
<path d="M6.66406 15.9999V5.33325M25.3307 26.6666V22.6666M6.66406 26.6666V21.3333M25.3307 17.3333V5.33325M15.9974 9.33325V5.33325M15.9974 26.6666V14.6666" stroke="#343434" stroke-width="1.66667" stroke-linecap="round"/>
<path d="M6.66667 21.3333C8.13943 21.3333 9.33333 20.1394 9.33333 18.6667C9.33333 17.1939 8.13943 16 6.66667 16C5.19391 16 4 17.1939 4 18.6667C4 20.1394 5.19391 21.3333 6.66667 21.3333Z" stroke="#343434" stroke-width="1.66667" stroke-linecap="round"/>
<path d="M16.0026 14.6666C17.4754 14.6666 18.6693 13.4727 18.6693 11.9999C18.6693 10.5272 17.4754 9.33325 16.0026 9.33325C14.5298 9.33325 13.3359 10.5272 13.3359 11.9999C13.3359 13.4727 14.5298 14.6666 16.0026 14.6666Z" stroke="#343434" stroke-width="1.66667" stroke-linecap="round"/>
<path d="M25.3307 22.6666C26.8035 22.6666 27.9974 21.4727 27.9974 19.9999C27.9974 18.5272 26.8035 17.3333 25.3307 17.3333C23.858 17.3333 22.6641 18.5272 22.6641 19.9999C22.6641 21.4727 23.858 22.6666 25.3307 22.6666Z" stroke="#343434" stroke-width="1.66667" stroke-linecap="round"/>
</svg>
