<svg width="32" height="32" viewBox="0 0 32 32" fill="none" xmlns="http://www.w3.org/2000/svg">
<path d="M23 4C24.3261 4 25.5979 4.52678 26.5355 5.46447C27.4732 6.40215 28 7.67392 28 9V11C28 11.2652 27.8946 11.5196 27.7071 11.7071C27.5196 11.8946 27.2652 12 27 12C26.7348 12 26.4804 11.8946 26.2929 11.7071C26.1054 11.5196 26 11.2652 26 11V9C26 8.20435 25.6839 7.44129 25.1213 6.87868C24.5587 6.31607 23.7956 6 23 6H21C20.7348 6 20.4804 5.89464 20.2929 5.70711C20.1054 5.51957 20 5.26522 20 5C20 4.73478 20.1054 4.48043 20.2929 4.29289C20.4804 4.10536 20.7348 4 21 4H23ZM9 4C7.67392 4 6.40215 4.52678 5.46447 5.46447C4.52678 6.40215 4 7.67392 4 9V11C4 11.2652 4.10536 11.5196 4.29289 11.7071C4.48043 11.8946 4.73478 12 5 12C5.26522 12 5.51957 11.8946 5.70711 11.7071C5.89464 11.5196 6 11.2652 6 11V9C6 8.20435 6.31607 7.44129 6.87868 6.87868C7.44129 6.31607 8.20435 6 9 6H11C11.2652 6 11.5196 5.89464 11.7071 5.70711C11.8946 5.51957 12 5.26522 12 5C12 4.73478 11.8946 4.48043 11.7071 4.29289C11.5196 4.10536 11.2652 4 11 4H9ZM23 28C24.3261 28 25.5979 27.4732 26.5355 26.5355C27.4732 25.5979 28 24.3261 28 23V21C28 20.7348 27.8946 20.4804 27.7071 20.2929C27.5196 20.1054 27.2652 20 27 20C26.7348 20 26.4804 20.1054 26.2929 20.2929C26.1054 20.4804 26 20.7348 26 21V23C26 23.7956 25.6839 24.5587 25.1213 25.1213C24.5587 25.6839 23.7956 26 23 26H21C20.7348 26 20.4804 26.1054 20.2929 26.2929C20.1054 26.4804 20 26.7348 20 27C20 27.2652 20.1054 27.5196 20.2929 27.7071C20.4804 27.8946 20.7348 28 21 28H23ZM4 23C4 24.3261 4.52678 25.5979 5.46447 26.5355C6.40215 27.4732 7.67392 28 9 28H11C11.2652 28 11.5196 27.8946 11.7071 27.7071C11.8946 27.5196 12 27.2652 12 27C12 26.7348 11.8946 26.4804 11.7071 26.2929C11.5196 26.1054 11.2652 26 11 26H9C8.20435 26 7.44129 25.6839 6.87868 25.1213C6.31607 24.5587 6 23.7956 6 23V21C6 20.7348 5.89464 20.4804 5.70711 20.2929C5.51957 20.1054 5.26522 20 5 20C4.73478 20 4.48043 20.1054 4.29289 20.2929C4.10536 20.4804 4 20.7348 4 21V23ZM16 20C17.0609 20 18.0783 19.5786 18.8284 18.8284C19.5786 18.0783 20 17.0609 20 16C20 14.9391 19.5786 13.9217 18.8284 13.1716C18.0783 12.4214 17.0609 12 16 12C14.9391 12 13.9217 12.4214 13.1716 13.1716C12.4214 13.9217 12 14.9391 12 16C12 17.0609 12.4214 18.0783 13.1716 18.8284C13.9217 19.5786 14.9391 20 16 20ZM16 18C15.4696 18 14.9609 17.7893 14.5858 17.4142C14.2107 17.0391 14 16.5304 14 16C14 15.4696 14.2107 14.9609 14.5858 14.5858C14.9609 14.2107 15.4696 14 16 14C16.5304 14 17.0391 14.2107 17.4142 14.5858C17.7893 14.9609 18 15.4696 18 16C18 16.5304 17.7893 17.0391 17.4142 17.4142C17.0391 17.7893 16.5304 18 16 18ZM10 11.5C10.3978 11.5 10.7794 11.342 11.0607 11.0607C11.342 10.7794 11.5 10.3978 11.5 10C11.5 9.60218 11.342 9.22064 11.0607 8.93934C10.7794 8.65804 10.3978 8.5 10 8.5C9.60218 8.5 9.22064 8.65804 8.93934 8.93934C8.65804 9.22064 8.5 9.60218 8.5 10C8.5 10.3978 8.65804 10.7794 8.93934 11.0607C9.22064 11.342 9.60218 11.5 10 11.5Z" fill="#1E1E1E"/>
</svg>
