<svg width="40" height="40" viewBox="0 0 40 40" fill="none" xmlns="http://www.w3.org/2000/svg">
<path d="M31.6641 28.3333H19.9974C18.1591 28.3333 16.6641 29.8283 16.6641 31.6667C16.6641 33.505 18.1591 35 19.9974 35H31.6641C33.5024 35 34.9974 33.505 34.9974 31.6667C34.9974 29.8283 33.5024 28.3333 31.6641 28.3333ZM31.6641 16.6667H19.9974C18.1591 16.6667 16.6641 18.1617 16.6641 20C16.6641 21.8383 18.1591 23.3333 19.9974 23.3333H31.6641C33.5024 23.3333 34.9974 21.8383 34.9974 20C34.9974 18.1617 33.5024 16.6667 31.6641 16.6667ZM31.6641 5H19.9974C18.1591 5 16.6641 6.495 16.6641 8.33333C16.6641 10.1717 18.1591 11.6667 19.9974 11.6667H31.6641C33.5024 11.6667 34.9974 10.1717 34.9974 8.33333C34.9974 6.495 33.5024 5 31.6641 5Z" fill="white"/>
<path d="M8.33073 35.8333C10.6319 35.8333 12.4974 33.9679 12.4974 31.6667C12.4974 29.3655 10.6319 27.5 8.33073 27.5C6.02954 27.5 4.16406 29.3655 4.16406 31.6667C4.16406 33.9679 6.02954 35.8333 8.33073 35.8333Z" fill="white"/>
<path d="M8.33073 24.1663C10.6319 24.1663 12.4974 22.3009 12.4974 19.9997C12.4974 17.6985 10.6319 15.833 8.33073 15.833C6.02954 15.833 4.16406 17.6985 4.16406 19.9997C4.16406 22.3009 6.02954 24.1663 8.33073 24.1663Z" fill="white"/>
<path d="M8.33073 12.5003C10.6319 12.5003 12.4974 10.6348 12.4974 8.33366C12.4974 6.03247 10.6319 4.16699 8.33073 4.16699C6.02954 4.16699 4.16406 6.03247 4.16406 8.33366C4.16406 10.6348 6.02954 12.5003 8.33073 12.5003Z" fill="white"/>
</svg>
