<svg width="40" height="28" viewBox="0 0 40 28" fill="none" xmlns="http://www.w3.org/2000/svg">
<g clip-path="url(#clip0_1141_4743)">
<path d="M39.1158 4.36722C38.8864 3.52311 38.4389 2.75356 37.8178 2.1352C37.1967 1.51684 36.4238 1.07125 35.5759 0.8428C32.4719 0 19.9793 0 19.9793 0C19.9793 0 7.48613 0.025511 4.38213 0.868311C3.53426 1.09678 2.76129 1.54239 2.14021 2.16078C1.51913 2.77916 1.07161 3.54875 0.842201 4.39289C-0.0966868 9.88369 -0.460899 18.2504 0.867982 23.5216C1.09741 24.3657 1.54495 25.1352 2.16603 25.7536C2.78711 26.3719 3.56006 26.8175 4.40791 27.046C7.51191 27.8888 20.0048 27.8888 20.0048 27.8888C20.0048 27.8888 32.4975 27.8888 35.6014 27.046C36.4492 26.8176 37.2222 26.372 37.8433 25.7536C38.4645 25.1353 38.912 24.3657 39.1415 23.5216C40.1317 18.023 40.4369 9.6614 39.1158 4.36722Z" fill="#FF0000"/>
<path d="M16 19.9205L26.3635 13.9443L16 7.9682V19.9205Z" fill="white"/>
</g>
<defs>
<clipPath id="clip0_1141_4743">
<rect width="40" height="28" fill="white"/>
</clipPath>
</defs>
</svg>
