<svg width="49" height="40" viewBox="0 0 49 40" fill="none" xmlns="http://www.w3.org/2000/svg">
<g clip-path="url(#clip0_1141_4734)">
<path d="M48.9952 4.87084C47.1606 5.68373 45.2145 6.21724 43.2218 6.45362C45.2974 5.2096 46.8911 3.23965 47.6415 0.892468C45.6684 2.06329 43.5097 2.88825 41.2586 3.3317C39.4249 1.37821 36.8126 0.157349 33.9213 0.157349C28.37 0.157349 23.8691 4.65802 23.8691 10.209C23.8691 10.997 23.9581 11.764 24.1294 12.4999C15.7753 12.0806 8.36861 8.07888 3.41072 1.99735C2.54565 3.48194 2.04995 5.20883 2.04995 7.05075C2.04995 10.5382 3.82469 13.6148 6.52172 15.4174C4.92544 15.3675 3.36427 14.9364 1.96861 14.16C1.9681 14.2021 1.96791 14.2443 1.96804 14.2865C1.96804 19.1568 5.43292 23.2195 10.0312 24.143C8.55097 24.5455 6.99834 24.6044 5.49187 24.3152C6.77091 28.3087 10.4833 31.2148 14.8817 31.2961C11.4415 33.992 7.10718 35.5991 2.39789 35.5991C1.58641 35.5991 0.786412 35.5514 0 35.4586C4.44842 38.3106 9.73206 39.9748 15.4086 39.9748C33.898 39.9748 44.0084 24.6578 44.0084 11.3748C44.0084 10.9388 43.9987 10.5053 43.9793 10.0743C45.9471 8.65151 47.6456 6.88949 48.9952 4.87084Z" fill="#55ACEE"/>
</g>
<defs>
<clipPath id="clip0_1141_4734">
<rect width="49" height="40" fill="white"/>
</clipPath>
</defs>
</svg>
