<svg width="44" height="40" viewBox="0 0 44 40" fill="none" xmlns="http://www.w3.org/2000/svg">
<path d="M22 35.4601H26V9.46013L38.788 14.9401C39.148 15.0944 39.4548 15.3511 39.6702 15.6782C39.8857 16.0053 40.0003 16.3884 40 16.7801V35.4601H44V39.4601H0V35.4601H4V8.76013C3.99995 8.37316 4.11216 7.99449 4.32303 7.67003C4.5339 7.34556 4.83436 7.08924 5.188 6.93213L20.594 0.0861278C20.7461 0.018553 20.9127 -0.0099876 21.0786 0.00309353C21.2445 0.0161747 21.4046 0.0704639 21.5442 0.161039C21.6838 0.251614 21.7987 0.37561 21.8782 0.521784C21.9578 0.667959 21.9997 0.831689 22 0.998128V35.4601Z" fill="#343434"/>
</svg>
