<svg width="32" height="32" viewBox="0 0 32 32" fill="none" xmlns="http://www.w3.org/2000/svg">
<path d="M6.47531 10.8613C6.89115 11.2787 7.20389 11.7873 7.38864 12.3467L7.98597 14.1827C8.03591 14.3242 8.12851 14.4467 8.25102 14.5334C8.37352 14.6201 8.5199 14.6666 8.66997 14.6666C8.82004 14.6666 8.96642 14.6201 9.08893 14.5334C9.21143 14.4467 9.30404 14.3242 9.35397 14.1827L9.95131 12.3467C10.1375 11.7888 10.4511 11.2819 10.8672 10.8662C11.2833 10.4506 11.7905 10.1376 12.3486 9.952L14.186 9.35467C14.327 9.30446 14.4491 9.21182 14.5354 9.08948C14.6217 8.96713 14.6681 8.82107 14.6681 8.67134C14.6681 8.52161 14.6217 8.37555 14.5354 8.2532C14.4491 8.13085 14.327 8.03822 14.186 7.988L14.1486 7.97867L12.3113 7.38134C11.7532 7.19578 11.246 6.88277 10.8298 6.46712C10.4137 6.05146 10.1001 5.54458 9.91397 4.98667L9.31797 3.15067C9.26831 3.00869 9.17575 2.88566 9.05308 2.79861C8.93041 2.71156 8.78372 2.66479 8.6333 2.66479C8.48289 2.66479 8.3362 2.71156 8.21353 2.79861C8.09086 2.88566 7.9983 3.00869 7.94864 3.15067L7.35131 4.98667L7.33664 5.032C7.14981 5.57601 6.84151 6.07031 6.43514 6.47738C6.02876 6.88444 5.53499 7.19359 4.99131 7.38134L3.15397 7.97867C3.01291 8.02888 2.89085 8.12152 2.80453 8.24387C2.71821 8.36621 2.67188 8.51227 2.67188 8.662C2.67188 8.81173 2.71821 8.9578 2.80453 9.08014C2.89085 9.20249 3.01291 9.29513 3.15397 9.34534L4.99131 9.94267C5.55131 10.1293 6.05797 10.444 6.47531 10.8613ZM26.67 9.33334C27.0236 9.33334 27.3627 9.47381 27.6128 9.72386C27.8628 9.97391 28.0033 10.313 28.0033 10.6667V17.3333C28.0033 17.687 27.8628 18.0261 27.6128 18.2761C27.3627 18.5262 27.0236 18.6667 26.67 18.6667C26.3164 18.6667 25.9772 18.5262 25.7272 18.2761C25.4771 18.0261 25.3366 17.687 25.3366 17.3333V13.8853L17.6126 21.6093C17.3626 21.8593 17.0235 21.9997 16.67 21.9997C16.3164 21.9997 15.9773 21.8593 15.7273 21.6093L13.3366 19.2187L6.2793 26.276C6.02784 26.5189 5.69103 26.6533 5.34144 26.6502C4.99184 26.6472 4.65742 26.507 4.41021 26.2598C4.163 26.0126 4.02278 25.6781 4.01974 25.3285C4.0167 24.9789 4.15109 24.6421 4.39397 24.3907L12.394 16.3907C12.644 16.1407 12.9831 16.0003 13.3366 16.0003C13.6902 16.0003 14.0293 16.1407 14.2793 16.3907L16.67 18.7813L23.4513 12H20.0033C19.6497 12 19.3105 11.8595 19.0605 11.6095C18.8104 11.3594 18.67 11.0203 18.67 10.6667C18.67 10.313 18.8104 9.97391 19.0605 9.72386C19.3105 9.47381 19.6497 9.33334 20.0033 9.33334H26.67ZM26.6926 23.9533L27.714 24.284L27.734 24.2893C27.7928 24.3101 27.846 24.3442 27.8894 24.389C27.9329 24.4337 27.9653 24.4879 27.9843 24.5473C28.0033 24.6067 28.0083 24.6697 27.9988 24.7314C27.9894 24.793 27.9658 24.8517 27.93 24.9027C27.8816 24.9708 27.813 25.0221 27.734 25.0493L26.714 25.38C26.4036 25.4833 26.1215 25.6574 25.89 25.8886C25.6586 26.1198 25.4842 26.4017 25.3806 26.712L25.05 27.7307C25.0224 27.8094 24.971 27.8777 24.9029 27.9259C24.8348 27.9742 24.7534 28.0001 24.67 28.0001C24.5865 28.0001 24.5051 27.9742 24.437 27.9259C24.369 27.8777 24.3176 27.8094 24.29 27.7307L23.958 26.712C23.8551 26.4011 23.6811 26.1185 23.4499 25.8866C23.2187 25.6547 22.9366 25.4798 22.626 25.376L21.606 25.044C21.5472 25.0232 21.494 24.9892 21.4505 24.9444C21.4071 24.8996 21.3746 24.8454 21.3556 24.786C21.3366 24.7266 21.3317 24.6636 21.3411 24.602C21.3505 24.5403 21.3741 24.4817 21.41 24.4307C21.4584 24.3625 21.5269 24.3112 21.606 24.284L22.626 23.9533C22.9323 23.8474 23.21 23.6722 23.4376 23.4414C23.6651 23.2106 23.8364 22.9305 23.938 22.6227L24.27 21.6027C24.2976 21.5239 24.349 21.4557 24.417 21.4074C24.4851 21.3591 24.5665 21.3332 24.65 21.3332C24.7334 21.3332 24.8148 21.3591 24.8829 21.4074C24.951 21.4557 25.0024 21.5239 25.03 21.6027L25.362 22.6213C25.4654 22.9315 25.6396 23.2133 25.8708 23.4445C26.102 23.6757 26.3825 23.8499 26.6926 23.9533Z" fill="#1E1E1E"/>
</svg>
