<svg width="51" height="51" viewBox="0 0 51 51" fill="none" xmlns="http://www.w3.org/2000/svg">
<g clip-path="url(#clip0_2419_10683)">
<path d="M26.6243 31.261C20.8634 31.261 15.9688 33.3109 12.7719 36.5239V42.5H40.4789V36.5239C37.2819 33.3109 32.3863 31.261 26.6243 31.261ZM52.0625 28.1941L26.5572 13.8125L1.0625 28.1941L5.31232 30.5738V34.2341C4.24667 34.504 4.24347 35.1873 4.24347 35.9997C4.24347 36.4795 4.37348 37.0415 4.62071 37.378L3.1629 41.196H8.36329L6.91826 37.3754C7.16123 37.0389 7.36051 36.5434 7.36051 36.0636C7.36051 35.2525 6.37797 34.5027 6.37797 34.2328V31.1854L11.7062 34.1141V33.8546C14.9032 30.4526 20.5203 28.2932 26.6232 28.2932C32.7284 28.2932 38.3476 30.4526 41.5445 33.8546V34.1141L52.0625 28.1941Z" fill="#343434"/>
</g>
<defs>
<clipPath id="clip0_2419_10683">
<rect width="51" height="51" fill="white"/>
</clipPath>
</defs>
</svg>
