<svg width="40" height="40" viewBox="0 0 40 40" fill="none" xmlns="http://www.w3.org/2000/svg">
<path fill-rule="evenodd" clip-rule="evenodd" d="M20.8359 22.5004C20.8359 24.1608 21.2774 25.7182 22.0495 27.0614L20.843 27.5474L15.0026 29.8344V10.9742L23.3359 7.05855V16.2087C21.786 17.8504 20.8359 20.0644 20.8359 22.5004ZM36.6692 11.3657V16.2088C34.998 14.4385 32.6293 13.3336 30.0026 13.3336C28.158 13.3336 26.4405 13.8786 25.0026 14.8161V6.9802L36.6692 11.3657ZM13.3359 29.7991V11.0043L3.33594 6.66699V25.4618L13.3359 29.7991ZM30.002 16.667C33.3771 16.667 36.1131 19.403 36.1131 22.7781C36.1131 23.8914 35.8163 24.9344 35.2954 25.834C34.7745 26.7336 30.002 35.0004 30.002 35.0004C30.002 35.0004 25.2296 26.7336 24.7087 25.834C24.1877 24.9344 23.8909 23.8914 23.8909 22.7781C23.8909 19.403 26.627 16.667 30.002 16.667ZM32.621 22.7781C32.621 24.2246 31.4484 25.3971 30.002 25.3971C28.5555 25.3971 27.3829 24.2246 27.3829 22.7781C27.3829 21.3317 28.5555 20.159 30.002 20.159C31.4484 20.159 32.621 21.3317 32.621 22.7781Z" fill="white"/>
</svg>
