<svg width="32" height="32" viewBox="0 0 32 32" fill="none" xmlns="http://www.w3.org/2000/svg">
<path d="M18.0026 10.6667H16.0026V17.3333L21.7093 20.72L22.6693 19.1067L18.0026 16.3333V10.6667ZM17.3359 4C14.1533 4 11.1011 5.26428 8.85066 7.51472C6.60022 9.76515 5.33594 12.8174 5.33594 16H1.33594L6.61594 21.3733L12.0026 16H8.0026C8.0026 13.5246 8.98594 11.1507 10.7363 9.40034C12.4866 7.65 14.8606 6.66667 17.3359 6.66667C19.8113 6.66667 22.1853 7.65 23.9356 9.40034C25.6859 11.1507 26.6693 13.5246 26.6693 16C26.6693 18.4754 25.6859 20.8493 23.9356 22.5997C22.1853 24.35 19.8113 25.3333 17.3359 25.3333C14.7626 25.3333 12.4293 24.28 10.7493 22.5867L8.85594 24.48C9.96475 25.6006 11.2857 26.489 12.7417 27.0934C14.1977 27.6977 15.7595 28.006 17.3359 28C20.5185 28 23.5708 26.7357 25.8212 24.4853C28.0717 22.2348 29.3359 19.1826 29.3359 16C29.3359 12.8174 28.0717 9.76515 25.8212 7.51472C23.5708 5.26428 20.5185 4 17.3359 4Z" fill="#1E1E1E"/>
</svg>
