<svg width="22" height="22" viewBox="0 0 22 22" fill="none" xmlns="http://www.w3.org/2000/svg">
<path d="M5.20833 2.60417H12.5V0L16.1458 3.64583L12.5 7.29167V4.6875H5.20833V7.29167L1.5625 3.64583L5.20833 0V2.60417ZM0 17.1875V6.25H2.08333V17.1875C2.08333 17.74 2.30283 18.2699 2.69353 18.6606C3.08423 19.0513 3.61413 19.2708 4.16667 19.2708H15.1042V21.3542H4.16667C3.0616 21.3542 2.00179 20.9152 1.22039 20.1338C0.438987 19.3524 0 18.2926 0 17.1875ZM18.75 16.1458V8.85417H21.3542L17.7083 5.20833L14.0625 8.85417H16.6667V16.1458H14.0625L17.7083 19.7917L21.3542 16.1458H18.75Z" fill="#343434"/>
</svg>
