<svg width="24" height="24" viewBox="0 0 24 24" fill="none" xmlns="http://www.w3.org/2000/svg">
<g clip-path="url(#clip0_2795_17421)">
<path d="M0.509876 11.8563C0.509318 13.8728 1.0362 15.8417 2.03806 17.5771L0.414062 23.5066L6.48216 21.9156C8.16052 22.8292 10.041 23.308 11.9519 23.3081H11.9569C18.2653 23.3081 23.4005 18.1748 23.4032 11.8653C23.4044 8.80792 22.2148 5.93295 20.0535 3.76997C17.8926 1.60718 15.0186 0.415458 11.9565 0.414062C5.64737 0.414062 0.512574 5.54709 0.509969 11.8563" fill="url(#paint0_linear_2795_17421)"/>
<path d="M0.0995349 11.8527C0.0988837 13.9417 0.644651 15.981 1.68223 17.7786L0 23.9207L6.28567 22.2726C8.01758 23.2168 9.96754 23.7147 11.9517 23.7154H11.9568C18.4915 23.7154 23.8112 18.3975 23.814 11.8621C23.8151 8.69488 22.5827 5.71656 20.3442 3.47609C18.1054 1.23591 15.1287 0.00130233 11.9568 0C5.42102 0 0.10214 5.31721 0.0995349 11.8527ZM3.84288 17.469L3.60819 17.0965C2.62158 15.5277 2.10084 13.7149 2.10158 11.8534C2.10363 6.4213 6.52447 2.00186 11.9606 2.00186C14.5931 2.00298 17.0672 3.02921 18.928 4.89116C20.7887 6.7533 21.8127 9.22865 21.812 11.8614C21.8096 17.2935 17.3887 21.7135 11.9568 21.7135H11.9529C10.1843 21.7126 8.44967 21.2376 6.93693 20.34L6.57693 20.1265L2.84688 21.1045L3.84288 17.469Z" fill="url(#paint1_linear_2795_17421)"/>
<path d="M8.9989 6.89771C8.77694 6.4044 8.54336 6.39445 8.33229 6.3858C8.15945 6.37836 7.96187 6.37892 7.76448 6.37892C7.56689 6.37892 7.24587 6.45324 6.97452 6.74952C6.7029 7.04608 5.9375 7.76273 5.9375 9.22031C5.9375 10.6779 6.99917 12.0866 7.14717 12.2845C7.29536 12.482 9.19676 15.5689 12.2081 16.7564C14.7108 17.7433 15.2201 17.547 15.7633 17.4975C16.3065 17.4482 17.5162 16.7811 17.763 16.0892C18.01 15.3975 18.01 14.8046 17.9359 14.6807C17.8619 14.5572 17.6643 14.4831 17.368 14.335C17.0717 14.1869 15.6151 13.4701 15.3435 13.3712C15.0719 13.2724 14.8744 13.2231 14.6768 13.5198C14.4793 13.8159 13.9119 14.4831 13.739 14.6807C13.5662 14.8787 13.3933 14.9034 13.0971 14.7552C12.8007 14.6065 11.8465 14.2941 10.7145 13.2849C9.83378 12.4996 9.23917 11.5298 9.06634 11.2331C8.8935 10.937 9.04783 10.7764 9.19638 10.6288C9.3295 10.496 9.49276 10.2828 9.64103 10.1099C9.78876 9.93687 9.83806 9.81343 9.93685 9.61585C10.0357 9.41808 9.98624 9.24506 9.91229 9.09687C9.83806 8.94868 9.26234 7.48347 8.9989 6.89771Z" fill="white"/>
</g>
<defs>
<linearGradient id="paint0_linear_2795_17421" x1="1149.87" y1="2309.67" x2="1149.87" y2="0.414062" gradientUnits="userSpaceOnUse">
<stop stop-color="#1FAF38"/>
<stop offset="1" stop-color="#60D669"/>
</linearGradient>
<linearGradient id="paint1_linear_2795_17421" x1="1190.7" y1="2392.07" x2="1190.7" y2="0" gradientUnits="userSpaceOnUse">
<stop stop-color="#F9F9F9"/>
<stop offset="1" stop-color="white"/>
</linearGradient>
<clipPath id="clip0_2795_17421">
<rect width="23.82" height="24" fill="white"/>
</clipPath>
</defs>
</svg>
